<svg xmlns="http://www.w3.org/2000/svg" width="980" height="520" viewBox="0 0 980 520" role="img">
<rect width="100%" height="100%" fill="#fff"/>
<text x="30.0" y="36.0" text-anchor="start" fill="#111" font-family="Arial, sans-serif" font-size="24" font-weight="700">H2 Regression Recovery Metrics</text>
<text x="30.0" y="60.0" text-anchor="start" fill="#555" font-family="Arial, sans-serif" font-size="13" font-weight="400">Lower is better. Values are means across 5 seeds.</text>
<line x1="92" y1="402.0" x2="912" y2="402.0" stroke="#e8e8e8"/>
<text x="80.0" y="406.0" text-anchor="end" fill="#555" font-family="Arial, sans-serif" font-size="11" font-weight="400">0</text>
<line x1="92" y1="336.0" x2="912" y2="336.0" stroke="#e8e8e8"/>
<text x="80.0" y="340.0" text-anchor="end" fill="#555" font-family="Arial, sans-serif" font-size="11" font-weight="400">10</text>
<line x1="92" y1="270.0" x2="912" y2="270.0" stroke="#e8e8e8"/>
<text x="80.0" y="274.0" text-anchor="end" fill="#555" font-family="Arial, sans-serif" font-size="11" font-weight="400">20</text>
<line x1="92" y1="204.0" x2="912" y2="204.0" stroke="#e8e8e8"/>
<text x="80.0" y="208.0" text-anchor="end" fill="#555" font-family="Arial, sans-serif" font-size="11" font-weight="400">30</text>
<line x1="92" y1="138.0" x2="912" y2="138.0" stroke="#e8e8e8"/>
<text x="80.0" y="142.0" text-anchor="end" fill="#555" font-family="Arial, sans-serif" font-size="11" font-weight="400">40</text>
<line x1="92" y1="72.0" x2="912" y2="72.0" stroke="#e8e8e8"/>
<text x="80.0" y="76.0" text-anchor="end" fill="#555" font-family="Arial, sans-serif" font-size="11" font-weight="400">50</text>
<line x1="92" y1="72" x2="92" y2="402" stroke="#222"/>
<line x1="92" y1="402" x2="912" y2="402" stroke="#222"/>
<text x="228.7" y="450.0" text-anchor="middle" fill="#111" font-family="Arial, sans-serif" font-size="13" font-weight="400">Recovery steps</text>
<rect x="159.7" y="204.0" width="46" height="198.0" fill="#d95f02" rx="3"/>
<text x="182.7" y="196.0" text-anchor="middle" fill="#222" font-family="Arial, sans-serif" font-size="12" font-weight="400">30</text>
<rect x="217.7" y="395.4" width="46" height="6.6" fill="#7570b3" rx="3"/>
<text x="240.7" y="387.4" text-anchor="middle" fill="#222" font-family="Arial, sans-serif" font-size="12" font-weight="400">1</text>
<rect x="275.7" y="395.4" width="46" height="6.6" fill="#1b9e77" rx="3"/>
<text x="298.7" y="387.4" text-anchor="middle" fill="#222" font-family="Arial, sans-serif" font-size="12" font-weight="400">1</text>
<text x="502.0" y="450.0" text-anchor="middle" fill="#111" font-family="Arial, sans-serif" font-size="13" font-weight="400">Affected Skill steps</text>
<rect x="433.0" y="204.0" width="46" height="198.0" fill="#d95f02" rx="3"/>
<text x="456.0" y="196.0" text-anchor="middle" fill="#222" font-family="Arial, sans-serif" font-size="12" font-weight="400">30</text>
<rect x="491.0" y="395.4" width="46" height="6.6" fill="#7570b3" rx="3"/>
<text x="514.0" y="387.4" text-anchor="middle" fill="#222" font-family="Arial, sans-serif" font-size="12" font-weight="400">1</text>
<rect x="549.0" y="395.4" width="46" height="6.6" fill="#1b9e77" rx="3"/>
<text x="572.0" y="387.4" text-anchor="middle" fill="#222" font-family="Arial, sans-serif" font-size="12" font-weight="400">1</text>
<text x="775.3" y="450.0" text-anchor="middle" fill="#111" font-family="Arial, sans-serif" font-size="13" font-weight="400">Work lost steps</text>
<rect x="706.3" y="402.0" width="46" height="0.0" fill="#d95f02" rx="3"/>
<text x="729.3" y="394.0" text-anchor="middle" fill="#222" font-family="Arial, sans-serif" font-size="12" font-weight="400">0</text>
<rect x="764.3" y="72.0" width="46" height="330.0" fill="#7570b3" rx="3"/>
<text x="787.3" y="64.0" text-anchor="middle" fill="#222" font-family="Arial, sans-serif" font-size="12" font-weight="400">50</text>
<rect x="822.3" y="402.0" width="46" height="0.0" fill="#1b9e77" rx="3"/>
<text x="845.3" y="394.0" text-anchor="middle" fill="#222" font-family="Arial, sans-serif" font-size="12" font-weight="400">0</text>
<rect x="710" y="28" width="14" height="14" fill="#d95f02" rx="2"/>
<text x="732.0" y="40.0" text-anchor="start" fill="#111" font-family="Arial, sans-serif" font-size="13" font-weight="400">NoVC</text>
<rect x="710" y="52" width="14" height="14" fill="#7570b3" rx="2"/>
<text x="732.0" y="64.0" text-anchor="start" fill="#111" font-family="Arial, sans-serif" font-size="13" font-weight="400">PeriodicSnap</text>
<rect x="710" y="76" width="14" height="14" fill="#1b9e77" rx="2"/>
<text x="732.0" y="88.0" text-anchor="start" fill="#111" font-family="Arial, sans-serif" font-size="13" font-weight="400">Ours-sit</text>
</svg>
