<svg xmlns="http://www.w3.org/2000/svg" width="980" height="520" viewBox="0 0 980 520" role="img">
<rect width="100%" height="100%" fill="#fff"/>
<text x="30.0" y="36.0" text-anchor="start" fill="#111" font-family="Arial, sans-serif" font-size="24" font-weight="700">H2 Success-Rate Recovery Curves</text>
<text x="30.0" y="60.0" text-anchor="start" fill="#555" font-family="Arial, sans-serif" font-size="13" font-weight="400">Synthetic evaluator: bad Skill marker drops success from 1.0 to 0.7.</text>
<line x1="92" y1="319.5" x2="912" y2="319.5" stroke="#e8e8e8"/>
<text x="80.0" y="323.5" text-anchor="end" fill="#555" font-family="Arial, sans-serif" font-size="11" font-weight="400">0.7</text>
<line x1="92" y1="237.0" x2="912" y2="237.0" stroke="#e8e8e8"/>
<text x="80.0" y="241.0" text-anchor="end" fill="#555" font-family="Arial, sans-serif" font-size="11" font-weight="400">0.8</text>
<line x1="92" y1="154.5" x2="912" y2="154.5" stroke="#e8e8e8"/>
<text x="80.0" y="158.5" text-anchor="end" fill="#555" font-family="Arial, sans-serif" font-size="11" font-weight="400">0.9</text>
<line x1="92" y1="72.0" x2="912" y2="72.0" stroke="#e8e8e8"/>
<text x="80.0" y="76.0" text-anchor="end" fill="#555" font-family="Arial, sans-serif" font-size="11" font-weight="400">1.0</text>
<line x1="92.0" y1="72" x2="92.0" y2="402" stroke="#f1f1f1"/>
<text x="92.0" y="426.0" text-anchor="middle" fill="#555" font-family="Arial, sans-serif" font-size="11" font-weight="400">0</text>
<line x1="502.0" y1="72" x2="502.0" y2="402" stroke="#f1f1f1"/>
<text x="502.0" y="426.0" text-anchor="middle" fill="#555" font-family="Arial, sans-serif" font-size="11" font-weight="400">100</text>
<line x1="912.0" y1="72" x2="912.0" y2="402" stroke="#f1f1f1"/>
<text x="912.0" y="426.0" text-anchor="middle" fill="#555" font-family="Arial, sans-serif" font-size="11" font-weight="400">200</text>
<line x1="92" y1="72" x2="92" y2="402" stroke="#222"/>
<line x1="92" y1="402" x2="912" y2="402" stroke="#222"/>
<text x="502.0" y="454.0" text-anchor="middle" fill="#333" font-family="Arial, sans-serif" font-size="13" font-weight="400">step</text>
<text x="30.0" y="237.0" text-anchor="middle" fill="#333" font-family="Arial, sans-serif" font-size="13" font-weight="400" transform="rotate(-90 30.0 237.0)">success</text>
<polyline points="92.0,72.0 497.9,72.0 502.0,319.5 625.0,319.5 629.1,72.0 912.0,72.0" fill="none" stroke="#d95f02" stroke-width="4" stroke-linejoin="round"/>
<polyline points="92.0,72.0 497.9,72.0 502.0,319.5 506.1,319.5 510.2,72.0 912.0,72.0" fill="none" stroke="#7570b3" stroke-width="4" stroke-linejoin="round"/>
<polyline points="92.0,72.0 497.9,72.0 502.0,319.5 506.1,319.5 510.2,72.0 912.0,72.0" fill="none" stroke="#1b9e77" stroke-width="4" stroke-linejoin="round"/>
<line x1="502.0" y1="72" x2="502.0" y2="402" stroke="#333" stroke-dasharray="5 5"/>
<text x="508.0" y="90.0" text-anchor="start" fill="#333" font-family="Arial, sans-serif" font-size="12" font-weight="400">bad PR</text>
<rect x="710" y="28" width="14" height="14" fill="#d95f02" rx="2"/>
<text x="732.0" y="40.0" text-anchor="start" fill="#111" font-family="Arial, sans-serif" font-size="13" font-weight="400">NoVC</text>
<rect x="710" y="52" width="14" height="14" fill="#7570b3" rx="2"/>
<text x="732.0" y="64.0" text-anchor="start" fill="#111" font-family="Arial, sans-serif" font-size="13" font-weight="400">PeriodicSnap</text>
<rect x="710" y="76" width="14" height="14" fill="#1b9e77" rx="2"/>
<text x="732.0" y="88.0" text-anchor="start" fill="#111" font-family="Arial, sans-serif" font-size="13" font-weight="400">Ours-sit</text>
</svg>
